<svg xmlns="http://www.w3.org/2000/svg" viewBox="0 0 128 128" width="128" height="128">
  <defs>
    <radialGradient id="sbone" cx="0.4" cy="0.3" r="0.9">
      <stop offset="0" stop-color="#f2eee0"/>
      <stop offset="1" stop-color="#a8a290"/>
    </radialGradient>
    <radialGradient id="sglow" cx="0.5" cy="0.5" r="0.5">
      <stop offset="0" stop-color="#ff4040" stop-opacity="1"/>
      <stop offset="1" stop-color="#ff4040" stop-opacity="0"/>
    </radialGradient>
  </defs>
  <ellipse cx="64" cy="118" rx="32" ry="6" fill="rgba(0,0,0,0.35)"/>
  <!-- skull -->
  <ellipse cx="64" cy="46" rx="26" ry="24" fill="url(#sbone)" stroke="#7a7460" stroke-width="2"/>
  <!-- eye sockets with glow -->
  <ellipse cx="53" cy="46" rx="7" ry="8" fill="#1a1a20"/>
  <ellipse cx="75" cy="46" rx="7" ry="8" fill="#1a1a20"/>
  <circle cx="53" cy="46" r="4" fill="url(#sglow)"/>
  <circle cx="75" cy="46" r="4" fill="url(#sglow)"/>
  <circle cx="53" cy="46" r="1.6" fill="#ff5050"/>
  <circle cx="75" cy="46" r="1.6" fill="#ff5050"/>
  <!-- nose + teeth -->
  <path d="M64 54 L60 62 L68 62 Z" fill="#3a362c"/>
  <rect x="54" y="66" width="20" height="8" rx="2" fill="url(#sbone)" stroke="#7a7460"/>
  <path d="M58 66 v8 M62 66 v8 M66 66 v8 M70 66 v8" stroke="#7a7460"/>
  <!-- spine + ribs -->
  <rect x="61" y="78" width="6" height="36" fill="url(#sbone)" stroke="#7a7460"/>
  <path d="M61 84 Q44 84 44 92" stroke="#c8c2b0" stroke-width="4" fill="none" stroke-linecap="round"/>
  <path d="M67 84 Q84 84 84 92" stroke="#c8c2b0" stroke-width="4" fill="none" stroke-linecap="round"/>
  <path d="M61 94 Q46 94 46 102" stroke="#c8c2b0" stroke-width="4" fill="none" stroke-linecap="round"/>
  <path d="M67 94 Q82 94 82 102" stroke="#c8c2b0" stroke-width="4" fill="none" stroke-linecap="round"/>
  <!-- sword on right -->
  <g transform="rotate(-12 100 70)">
    <rect x="98" y="34" width="5" height="54" fill="#b9bcc8" stroke="#6a6d7a"/>
    <rect x="92" y="86" width="17" height="4" rx="2" fill="#6a5a3a"/>
    <rect x="99" y="90" width="3" height="12" fill="#4a3a24"/>
  </g>
  <!-- shield left -->
  <path d="M20 74 L38 70 L38 96 Q29 104 20 108 Z" fill="#6a5a8a" stroke="#4a3a6a" stroke-width="2"/>
  <circle cx="30" cy="86" r="4" fill="#8a7aaa"/>
<path d="M14 20 Q8 70 18 118 L34 108 Q28 60 30 26 Z" fill="#8a2030" opacity="0.9"/><path d="M114 20 Q120 70 110 118 L94 108 Q100 60 98 26 Z" fill="#8a2030" opacity="0.9"/><rect x="48" y="24" width="32" height="4" rx="2" fill="#f5c542" stroke="#a07d1d"/></svg>
